<?xml version="1.0" encoding="UTF-8"?>
<svg width="24px" height="24px" viewBox="0 0 24 24" version="1.1" xmlns="http://www.w3.org/2000/svg">
    <g stroke="none" stroke-width="1" fill="none" fill-rule="evenodd">
        <path d="M24,5.457 L24,17.733 C24,18.99 22.989,20 21.733,20 L2.267,20 C1.01,20 0,18.99 0,17.733 L0,5.457 L12,13.456 L24,5.457 Z" fill="#EA4335"/>
        <path d="M24,5.457 L24,4.267 C24,3.01 22.989,2 21.733,2 L2.267,2 C1.01,2 0,3.01 0,4.267 L0,5.457 L12,13.456 L24,5.457 Z" fill="#FBBC05"/>
        <path d="M0,5.457 L0,17.733 C0,18.99 1.01,20 2.267,20 L8,20 L8,13.456 L0,5.457 Z" fill="#34A853"/>
        <path d="M24,5.457 L24,17.733 C24,18.99 22.989,20 21.733,20 L16,20 L16,13.456 L24,5.457 Z" fill="#4285F4"/>
    </g>
</svg> 